<svg width="9" height="12" viewBox="0 0 9 12" fill="none" xmlns="http://www.w3.org/2000/svg">
<rect width="9" height="12" fill="#F5F5F5"/>
<g id="Category Wise Product Page" clip-path="url(#clip0_0_1)">
<rect width="1280" height="3616" transform="translate(-141 -1668)" fill="white"/>
<g id="Group 178">
<g id="Group 179">
<g id="Group">
<path id="Vector" d="M6.66699 8.33074C6.66699 8.50755 6.73723 8.67712 6.86226 8.80215C6.98728 8.92717 7.15685 8.99741 7.33367 8.99741C7.51048 8.99741 7.68005 8.92717 7.80508 8.80215C7.9301 8.67712 8.00034 8.50755 8.00034 8.33074C8.00034 8.15392 7.9301 7.98435 7.80508 7.85933C7.68005 7.7343 7.51048 7.66406 7.33367 7.66406C7.15685 7.66406 6.98728 7.7343 6.86226 7.85933C6.73723 7.98435 6.66699 8.15392 6.66699 8.33074Z" stroke="black" stroke-width="1.5" stroke-linecap="round" stroke-linejoin="round"/>
<path id="Vector_2" d="M1 2.66538C1 2.31175 1.14048 1.97261 1.39053 1.72256C1.64058 1.47251 1.97972 1.33203 2.33335 1.33203C2.68697 1.33203 3.02612 1.47251 3.27617 1.72256C3.52622 1.97261 3.6667 2.31175 3.6667 2.66538V8.66544C3.6667 9.19588 3.87741 9.7046 4.25249 10.0797C4.62756 10.4548 5.13628 10.6655 5.66672 10.6655C6.19716 10.6655 6.70587 10.4548 7.08095 10.0797C7.45602 9.7046 7.66674 9.19588 7.66674 8.66544V8.33211M1.66667 5.33207H5.66672" stroke="black" stroke-width="1.5" stroke-linecap="round" stroke-linejoin="round"/>
</g>
</g>
</g>
</g>
<defs>
<clipPath id="clip0_0_1">
<rect width="1280" height="3616" fill="white" transform="translate(-141 -1668)"/>
</clipPath>
</defs>
</svg>
